<svg width="0" height="0" class="hidden">
  <symbol aria-hidden="true" data-prefix="fas" data-icon="star" xmlns="http://www.w3.org/2000/svg" viewBox="0 0 576 512" id="star">
    <path d="M259.3 17.8L194 150.2 47.9 171.5c-26.2 3.8-36.7 36.1-17.7 54.6l105.7 103-25 145.5c-4.5 26.3 23.2 46 46.4 33.7L288 439.6l130.7 68.7c23.2 12.2 50.9-7.4 46.4-33.7l-25-145.5 105.7-103c19-18.5 8.5-50.8-17.7-54.6L382 150.2 316.7 17.8c-11.7-23.6-45.6-23.9-57.4 0z"></path>
  </symbol>
  <symbol aria-hidden="true" data-prefix="fas" data-icon="map-marked-alt" xmlns="http://www.w3.org/2000/svg" viewBox="0 0 576 512" id="map">
    <path  d="M288 0c-69.59 0-126 56.41-126 126 0 56.26 82.35 158.8 113.9 196.02 6.39 7.54 17.82 7.54 24.2 0C331.65 284.8 414 182.26 414 126 414 56.41 357.59 0 288 0zm0 168c-23.2 0-42-18.8-42-42s18.8-42 42-42 42 18.8 42 42-18.8 42-42 42zM20.12 215.95A32.006 32.006 0 000 245.66v250.32c0 11.32 11.43 19.06 21.94 14.86L160 448V214.92c-8.84-15.98-16.07-31.54-21.25-46.42L20.12 215.95zM288 359.67c-14.07 0-27.38-6.18-36.51-16.96-19.66-23.2-40.57-49.62-59.49-76.72v182l192 64V266c-18.92 27.09-39.82 53.52-59.49 76.72-9.13 10.77-22.44 16.95-36.51 16.95zm266.06-198.51L416 224v288l139.88-55.95A31.996 31.996 0 00576 426.34V176.02c0-11.32-11.43-19.06-21.94-14.86z"></path>
  </symbol>
  <symbol aria-hidden="true" data-prefix="fas" data-icon="magic" xmlns="http://www.w3.org/2000/svg" viewBox="0 0 512 512" id="magic">
    <path  d="M224 96l16-32 32-16-32-16-16-32-16 32-32 16 32 16 16 32zM80 160l26.66-53.33L160 80l-53.34-26.67L80 0 53.34 53.33 0 80l53.34 26.67L80 160zm352 128l-26.66 53.33L352 368l53.34 26.67L432 448l26.66-53.33L512 368l-53.34-26.67L432 288zm70.62-193.77L417.77 9.38C411.53 3.12 403.34 0 395.15 0c-8.19 0-16.38 3.12-22.63 9.38L9.38 372.52c-12.5 12.5-12.5 32.76 0 45.25l84.85 84.85c6.25 6.25 14.44 9.37 22.62 9.37 8.19 0 16.38-3.12 22.63-9.37l363.14-363.15c12.5-12.48 12.5-32.75 0-45.24zM359.45 203.46l-50.91-50.91 86.6-86.6 50.91 50.91-86.6 86.6z"></path>
  </symbol>
    <symbol xmlns="http://www.w3.org/2000/svg" viewBox="0 0 30 28" id="vendors">
    
    <path  d="M9.266 14a5.532 5.532 0 00-4.141 2H3.031C1.468 16 0 15.25 0 13.516 0 12.25-.047 8 1.937 8c.328 0 1.953 1.328 4.062 1.328.719 0 1.406-.125 2.078-.359A7.624 7.624 0 007.999 10c0 1.422.453 2.828 1.266 4zM26 23.953C26 26.484 24.328 28 21.828 28H8.172C5.672 28 4 26.484 4 23.953 4 20.422 4.828 15 9.406 15c.531 0 2.469 2.172 5.594 2.172S20.063 15 20.594 15C25.172 15 26 20.422 26 23.953zM10 4c0 2.203-1.797 4-4 4S2 6.203 2 4s1.797-4 4-4 4 1.797 4 4zm11 6c0 3.313-2.688 6-6 6s-6-2.688-6-6 2.688-6 6-6 6 2.688 6 6zm9 3.516C30 15.25 28.531 16 26.969 16h-2.094a5.532 5.532 0 00-4.141-2A7.066 7.066 0 0022 10a7.6 7.6 0 00-.078-1.031A6.258 6.258 0 0024 9.328C26.109 9.328 27.734 8 28.062 8c1.984 0 1.937 4.25 1.937 5.516zM28 4c0 2.203-1.797 4-4 4s-4-1.797-4-4 1.797-4 4-4 4 1.797 4 4z"></path>
  </symbol>
   </svg>
 